<mxfile compressed="false" host="Electron" modified="2020-10-04T09:59:48.340Z" agent="5.0 (Windows NT 10.0; Win64; x64) AppleWebKit/537.36 (KHTML, like Gecko) draw.io/13.7.3 Chrome/85.0.4183.98 Electron/10.1.2 Safari/537.36" version="13.7.3" etag="ZDOnQ4TrVal1CLprOYh5" type="device">
  <diagram id="Page-1" name="Page-1">
    <mxGraphModel dx="1551" dy="1209" grid="1" gridSize="10" guides="1" tooltips="1" connect="1" arrows="1" fold="1" page="1" pageScale="1" pageWidth="827" pageHeight="1169" math="0" shadow="1">
      <root>
        <mxCell id="0" />
        <mxCell id="1" parent="0" />
        <object label="node-1" id="node-1">
          <mxCell style="rounded=1;whiteSpace=wrap;html=1;" parent="1" vertex="1">
            <mxGeometry x="1420" y="240" width="120" height="60" as="geometry" />
          </mxCell>
        </object>
        <object label="node-2" id="node-2">
          <mxCell style="rounded=1;whiteSpace=wrap;html=1;" parent="1" vertex="1">
            <mxGeometry x="1110" y="240" width="120" height="60" as="geometry" />
          </mxCell>
        </object>
        <object label="node-3" id="node-3">
          <mxCell style="rounded=1;whiteSpace=wrap;html=1;" parent="1" vertex="1">
            <mxGeometry x="997" y="749" width="120" height="60" as="geometry" />
          </mxCell>
        </object>
        <object a="b" c="d" label="node-4" link="http://google.com" id="node-4">
          <mxCell style="rounded=1;whiteSpace=wrap;html=1;" parent="1" vertex="1">
            <mxGeometry x="900" y="240" width="120" height="60" as="geometry" />
          </mxCell>
        </object>
        <object label="node-55" id="node-55">
          <mxCell style="shape=mxgraph.cisco.routers.atm_router;html=1;pointerEvents=1;dashed=0;fillColor=#036897;strokeColor=#ffffff;strokeWidth=2;verticalLabelPosition=bottom;verticalAlign=top;align=center;outlineConnect=0;" parent="1" vertex="1">
            <mxGeometry x="680" y="240" width="78" height="53" as="geometry" />
          </mxCell>
        </object>
        <object label="bla1" source="node-1" target="node-2" id="b35ebf8a6eeb7084dd9f3e14ec85eb9c">
          <mxCell style="endArrow=none;" parent="1" source="node-1" target="node-2" edge="1">
            <mxGeometry relative="1" as="geometry" />
          </mxCell>
        </object>
        <object label="bla2" source="node-2" target="node-3" id="601d1f4fe959524564b9139bfd9ee1c5">
          <mxCell style="endArrow=none;" parent="1" source="node-2" target="node-3" edge="1">
            <mxGeometry relative="1" as="geometry" />
          </mxCell>
        </object>
        <object label="bla3" source="node-3" target="node-1" id="03d64cf220b7cea506298c06d433f38e">
          <mxCell style="endArrow=none;" parent="1" source="node-3" target="node-1" edge="1">
            <mxGeometry relative="1" as="geometry" />
          </mxCell>
        </object>
        <object label="bla4" source="node-4" target="node-3" id="d5fa69cbdbc6ae606177e052dcdf4fdc">
          <mxCell style="endArrow=none;" parent="1" source="node-4" target="node-3" edge="1">
            <mxGeometry relative="1" as="geometry" />
          </mxCell>
        </object>
        <object label="" source="node-55" target="node-3" id="51261c22508dab030b295dc400535756">
          <mxCell style="endArrow=none;" parent="1" source="node-55" target="node-3" edge="1">
            <mxGeometry relative="1" as="geometry" />
          </mxCell>
        </object>
      </root>
    </mxGraphModel>
  </diagram>
</mxfile>
